PathFileType	4	(X/Y/Z)	C:\Users\°ÂÌØÂü\Desktop\20210112\bx_n_0_902-Unnamed.trc
DataRate	CameraRate	NumFrames	NumMarkers	Units	OrigDataRate	OrigDataStartFrame	OrigNumFrames
50.00	50.00	       6	0	mm	50.00	105	       416
Frame#	Time	
		

105	2.080	-647.46478	113.22994	1852.12817	-719.16803	247.25620	575.42444	-678.59009	286.68509	1530.51880	-576.70905	216.86520	788.57178	-578.14551	-8.48034	798.93353	-665.37793	-78.99577	1534.00220	-680.17657	269.38297	742.03387	-691.87970	73.18855	571.78967	-663.51123	15.60650	518.22699	-718.90070	253.35431	640.99976				-669.32007	203.04401	532.87115	-758.85223	259.72131	502.21310	-517.70892	-72.91471	143.28874	-548.47632	-26.64960	164.61218	-793.59601	38.89258	174.97284	-719.82019	72.29527	216.64981	-600.38184	29.04416	165.75444	-674.89313	55.29504	156.30789	-795.54620	180.31337	184.83609	-764.51630	227.81113	205.91853	-589.28680	207.21754	173.83171	-882.51794	296.10651	144.56905	-552.61578	243.03540	166.04715	-652.37451	291.50290	157.14470	-615.21069	297.19019	158.72205	-528.13885	304.07614	146.58961				-652.80994	-75.45783	870.70093	-753.36743	-48.27886	487.69351	-757.34100	-19.01367	206.95601	-875.85522	-78.73365	141.22168				-674.75269	-65.63265	754.71753	-701.07843	-37.71599	613.21075	-709.73431	-34.78994	567.17505	-714.77557	150.42043	217.23256	-675.57159	165.68390	157.52985	-605.66949	-70.85454	159.35887	-647.72095	-65.37152	163.76480	-568.85468	106.73032	1352.46228										-581.91241	237.51912	1059.88416	-668.37250	283.94388	871.64441				-783.83521	95.58757	1063.25916	-581.65894	-9.77172	1051.24243	
106	2.100	-645.18427	113.06232	1852.14783	-719.48517	247.19720	575.26080	-677.67853	286.56393	1530.60925	-577.03931	216.93582	788.48090	-578.54797	-8.55212	799.03595	-663.82739	-79.19787	1533.99792	-680.37628	269.66907	742.07416	-691.94098	73.28710	571.68036	-664.05719	15.54106	518.34912	-719.24274	253.65297	641.11969				-669.55481	202.93332	532.90424	-759.05377	259.75745	502.43008	-517.67078	-73.01729	143.40648	-548.43469	-26.68468	164.59950	-793.59253	38.82106	174.85310	-719.82660	72.32821	216.61096	-600.27728	29.00059	165.80499	-674.83008	55.21100	156.75140	-795.56842	180.39552	184.92073	-764.54120	227.85909	205.78406	-589.15710	207.11386	173.96825	-882.53406	296.09598	144.57982	-552.73529	242.85999	165.93484	-652.24738	291.40533	157.13847	-615.28967	296.93808	158.62871	-528.20642	304.25778	146.63400				-653.22699	-75.32707	870.69836	-753.57623	-48.21472	487.86102	-757.29590	-19.00699	206.87384	-876.05164	-78.86915	141.48628				-674.98523	-65.74385	754.94354	-701.73621	-37.71061	613.11603	-709.81030	-34.76374	567.08594	-714.65393	150.38359	217.37450	-675.50397	165.62892	157.20302	-605.72815	-70.84627	159.28044	-647.65430	-65.67976	163.76703	-568.15881	106.66660	1352.46863										-582.25916	237.85062	1059.89966	-669.11115	284.06439	871.94537				-784.18518	95.73769	1063.42761	-582.03992	-9.61514	1050.97058	
107	2.120	-642.71350	112.93195	1852.00732	-719.72015	247.20290	575.03802	-676.16016	286.67126	1530.63708	-577.72791	216.72685	788.40851	-578.98071	-8.55576	798.98303	-662.68842	-79.31837	1534.03247	-680.90265	269.59439	741.94928	-692.12781	73.25492	571.53625	-664.32275	15.60522	518.22778	-719.55713	253.72522	641.09662				-669.90234	202.96329	532.46942	-759.37823	259.73398	502.25006	-517.76788	-73.00027	143.44125	-548.45911	-26.59477	164.73317	-793.45782	38.83245	174.80209	-719.77094	72.34013	216.46922	-600.32861	28.97871	165.89857	-674.86078	55.29903	156.67786	-795.80316	180.32730	184.72665	-764.58044	227.60989	205.79175	-589.15710	207.11386	173.96825	-882.57434	296.15549	144.64362	-552.67590	243.00937	165.94772	-652.18860	291.28082	157.20894	-615.19397	297.08203	158.94328	-528.18390	304.18793	146.52794				-653.66016	-75.33627	870.90485	-753.74628	-48.13948	487.59985	-757.39600	-19.17105	207.00526	-875.93073	-78.79627	141.25227				-675.44678	-65.70255	754.79712	-701.81415	-37.82796	613.34302	-710.20001	-35.13370	567.39221	-714.79254	150.30473	217.07227	-675.43225	165.77403	157.25008	-605.74945	-70.90457	159.44373	-647.79193	-65.36941	163.75880	-567.42340	106.61604	1352.14429										-583.03510	237.87799	1059.61755	-669.27576	283.86987	871.81879				-784.52844	95.67713	1063.80432	-582.52960	-9.37402	1050.76831	
108	2.140	-640.41986	112.70546	1851.93030	-719.85242	247.46713	575.42664	-674.61627	286.38815	1531.08081	-577.87311	217.04634	788.31842	-579.44836	-7.90601	799.39063	-661.64282	-79.15452	1533.87524	-681.28949	269.60852	742.08429	-692.38428	73.16836	571.36267	-664.40961	15.50215	518.22302	-720.13513	253.83891	640.80792				-670.02905	203.17029	532.66724	-759.76447	259.56583	501.92621	-517.68488	-72.92015	143.52193	-548.32233	-26.70683	164.48601	-793.49304	38.86366	175.00087	-719.82019	72.29527	216.64981	-600.13452	29.20517	166.07295	-674.70148	55.30508	156.87613	-795.59827	180.42490	184.84813	-764.60046	227.62035	205.62952	-589.28680	207.21754	173.83171	-882.51172	296.15729	144.67366	-552.56427	242.82004	165.94547	-652.17065	291.44000	157.07121	-615.27460	297.12326	158.82219	-528.20587	304.18387	146.66603				-654.16357	-75.14896	871.02350	-753.96759	-48.22065	487.48132	-757.34955	-18.95071	206.99153	-875.95648	-78.79716	141.44162				-675.84314	-65.47334	754.70135	-702.25897	-37.59926	613.03442	-710.52740	-35.05113	567.42914	-714.73334	150.36653	217.25900	-675.47968	165.86617	157.23630	-605.80811	-70.89630	159.36530	-647.63635	-65.27523	163.71216	-566.69434	106.50682	1351.95679										-583.20044	237.85901	1059.66370	-669.97003	283.65396	871.76965				-784.88971	95.88663	1064.09302	-582.78772	-9.21531	1050.80298	
109	2.160	-637.37476	112.44919	1851.93359	-720.01416	247.25552	575.30481	-673.47357	286.31512	1531.13013	-578.62036	217.16719	788.27081	-579.85834	-8.40245	798.83661	-659.81335	-79.31187	1533.96838	-681.58813	269.69446	742.26373	-692.85718	73.08078	570.76093	-664.88171	15.67092	517.95935	-720.69116	253.85336	640.99030				-670.18835	203.07619	532.88068	-760.04681	259.97763	502.23331	-517.67078	-73.01729	143.40648	-548.55591	-26.67976	164.57643	-793.41785	38.57857	174.92824	-719.87653	72.28743	216.78673	-600.30176	29.19520	165.83539	-674.73218	55.39311	156.80258	-795.86035	180.45634	184.85782	-764.65314	227.77003	205.62007	-589.22272	207.13783	173.90126	-882.41229	296.21234	144.77406	-552.54291	242.92662	166.05598	-652.32062	291.47745	157.19121	-615.18634	296.98788	158.61971	-528.13269	304.28641	146.77737				-654.65710	-75.02097	871.01361	-754.23981	-48.12616	487.58371	-757.29059	-19.12094	206.78847	-875.95374	-78.68990	141.32727				-676.26886	-65.31384	754.67462	-702.42084	-37.53333	613.41754	-710.71906	-35.04623	567.47766	-714.79254	150.30473	217.07227	-675.61908	165.77602	157.51607	-605.74945	-70.90457	159.44373	-647.66205	-65.44850	163.88574	-566.19537	106.48328	1351.67761										-583.80414	238.14732	1059.89648	-670.34753	284.11356	872.16510				-785.08398	95.74398	1064.07410	-583.20392	-9.21677	1050.78528	
110	2.180	-634.44147	112.40905	1851.85852	-720.15979	247.58784	575.21252	-671.91138	286.04694	1531.58215	-579.32074	217.65147	788.49341	-580.41797	-7.95277	798.95190	-658.35217	-79.26731	1534.19470	-682.08514	269.43753	741.97571	-693.43970	73.01664	570.91534	-664.88171	15.67092	517.95935	-721.38300	253.59421	641.15784				-670.29523	203.09410	532.76825	-760.48328	259.88916	502.04190	-517.67078	-73.01729	143.40648	-548.41956	-26.59099	164.63396	-793.43683	38.85628	175.00464	-719.64825	72.21384	216.40146	-600.21899	29.39853	165.94658	-674.86078	55.29903	156.67786	-795.72021	180.34279	184.77768	-764.57727	227.71309	205.73924	-589.22119	207.19357	173.89868	-882.45331	296.02969	144.57741	-552.67590	243.00937	165.94772	-652.34277	291.43591	157.19939	-615.05103	297.02295	158.63116	-528.18390	304.18793	146.52794				-655.03766	-74.83801	870.97168	-754.53699	-48.22255	487.63046	-757.29590	-19.00699	206.87384	-875.92706	-78.75471	141.28087				-676.60138	-65.44576	754.68036	-702.63135	-37.42181	613.21655	-711.18872	-34.75415	567.20966	-714.77557	150.42043	217.23256	-675.43225	165.77403	157.25008	-605.79785	-71.01772	159.49997	-647.72443	-65.63978	163.71454	-565.52515	106.37781	1351.27332										-584.02332	238.06186	1059.88123	-670.94952	284.06955	871.94165				-785.81946	95.88234	1064.21045	-583.80719	-9.04596	1050.73438	
